<?xml version="1.0" encoding="utf-8" standalone="no"?>
<!DOCTYPE svg PUBLIC "-//W3C//DTD SVG 1.1//EN"
  "http://www.w3.org/Graphics/SVG/1.1/DTD/svg11.dtd">
<svg xmlns:xlink="http://www.w3.org/1999/xlink" width="950.4pt" height="482.4pt" viewBox="0 0 950.4 482.4" xmlns="http://www.w3.org/2000/svg" version="1.1">
 <metadata>
  <rdf:RDF xmlns:dc="http://purl.org/dc/elements/1.1/" xmlns:cc="http://creativecommons.org/ns#" xmlns:rdf="http://www.w3.org/1999/02/22-rdf-syntax-ns#">
   <cc:Work>
    <dc:type rdf:resource="http://purl.org/dc/dcmitype/StillImage"/>
    <dc:date>2026-06-30T04:55:05.232080</dc:date>
    <dc:format>image/svg+xml</dc:format>
    <dc:creator>
     <cc:Agent>
      <dc:title>Matplotlib v3.10.8, https://matplotlib.org/</dc:title>
     </cc:Agent>
    </dc:creator>
   </cc:Work>
  </rdf:RDF>
 </metadata>
 <defs>
  <style type="text/css">*{stroke-linejoin: round; stroke-linecap: butt}</style>
 </defs>
 <g id="figure_1">
  <g id="patch_1">
   <path d="M 0 482.4 
L 950.4 482.4 
L 950.4 0 
L 0 0 
z
" style="fill: #ffffff"/>
  </g>
  <g id="axes_1">
   <g id="patch_2">
    <path d="M 31.68 297.36 
L 155.52 297.36 
Q 161.28 297.36 161.28 292.011429 
L 161.28 217.131429 
Q 161.28 211.782857 155.52 211.782857 
L 31.68 211.782857 
Q 25.92 211.782857 25.92 217.131429 
L 25.92 292.011429 
Q 25.92 297.36 31.68 297.36 
L 31.68 297.36 
z
" clip-path="url(#p774eec4c30)" style="fill: none; stroke: #000000; stroke-width: 1.8; stroke-linejoin: miter"/>
   </g>
   <g id="patch_3">
    <path d="M 211.68 163.645714 
L 364.32 163.645714 
Q 370.08 163.645714 370.08 158.297143 
L 370.08 90.102857 
Q 370.08 84.754286 364.32 84.754286 
L 211.68 84.754286 
Q 205.92 84.754286 205.92 90.102857 
L 205.92 158.297143 
Q 205.92 163.645714 211.68 163.645714 
L 211.68 163.645714 
z
" clip-path="url(#p774eec4c30)" style="fill: none; stroke: #000000; stroke-width: 1.8; stroke-linejoin: miter"/>
   </g>
   <g id="patch_4">
    <path d="M 211.68 411.017143 
L 364.32 411.017143 
Q 370.08 411.017143 370.08 405.668571 
L 370.08 337.474286 
Q 370.08 332.125714 364.32 332.125714 
L 211.68 332.125714 
Q 205.92 332.125714 205.92 337.474286 
L 205.92 405.668571 
Q 205.92 411.017143 211.68 411.017143 
L 211.68 411.017143 
z
" clip-path="url(#p774eec4c30)" style="fill: none; stroke: #000000; stroke-width: 1.8; stroke-linejoin: miter"/>
   </g>
   <g id="patch_5">
    <path d="M 413.28 411.017143 
L 551.52 411.017143 
Q 557.28 411.017143 557.28 405.668571 
L 557.28 337.474286 
Q 557.28 332.125714 551.52 332.125714 
L 413.28 332.125714 
Q 407.52 332.125714 407.52 337.474286 
L 407.52 405.668571 
Q 407.52 411.017143 413.28 411.017143 
L 413.28 411.017143 
z
" clip-path="url(#p774eec4c30)" style="fill: none; stroke: #000000; stroke-width: 1.8; stroke-linejoin: miter"/>
   </g>
   <g id="patch_6">
    <path d="M 593.28 411.017143 
L 731.52 411.017143 
Q 737.28 411.017143 737.28 405.668571 
L 737.28 337.474286 
Q 737.28 332.125714 731.52 332.125714 
L 593.28 332.125714 
Q 587.52 332.125714 587.52 337.474286 
L 587.52 405.668571 
Q 587.52 411.017143 593.28 411.017143 
L 593.28 411.017143 
z
" clip-path="url(#p774eec4c30)" style="fill: none; stroke: #000000; stroke-width: 1.8; stroke-linejoin: miter"/>
   </g>
   <g id="patch_7">
    <path d="M 593.28 163.645714 
L 731.52 163.645714 
Q 737.28 163.645714 737.28 158.297143 
L 737.28 90.102857 
Q 737.28 84.754286 731.52 84.754286 
L 593.28 84.754286 
Q 587.52 84.754286 587.52 90.102857 
L 587.52 158.297143 
Q 587.52 163.645714 593.28 163.645714 
L 593.28 163.645714 
z
" clip-path="url(#p774eec4c30)" style="fill: none; stroke: #000000; stroke-width: 1.8; stroke-linejoin: miter"/>
   </g>
   <g id="patch_8">
    <path d="M 780.48 277.302857 
L 911.52 277.302857 
Q 917.28 277.302857 917.28 271.954286 
L 917.28 183.702857 
Q 917.28 178.354286 911.52 178.354286 
L 780.48 178.354286 
Q 774.72 178.354286 774.72 183.702857 
L 774.72 271.954286 
Q 774.72 277.302857 780.48 277.302857 
L 780.48 277.302857 
z
" clip-path="url(#p774eec4c30)" style="fill: none; stroke: #000000; stroke-width: 1.8; stroke-linejoin: miter"/>
   </g>
   <g id="patch_9">
    <path d="M 780.48 424.388571 
L 911.52 424.388571 
Q 917.28 424.388571 917.28 419.04 
L 917.28 357.531429 
Q 917.28 352.182857 911.52 352.182857 
L 780.48 352.182857 
Q 774.72 352.182857 774.72 357.531429 
L 774.72 419.04 
Q 774.72 424.388571 780.48 424.388571 
L 780.48 424.388571 
z
" clip-path="url(#p774eec4c30)" style="fill: none; stroke: #000000; stroke-width: 1.8; stroke-linejoin: miter"/>
   </g>
   <g id="patch_10">
    <path d="M 159.232104 236.035853 
Q 183.600818 182.698209 207.272618 130.885954 
" clip-path="url(#p774eec4c30)" style="fill: none; stroke: #000000; stroke-width: 1.5; stroke-linecap: round"/>
    <path d="M 202.398701 134.815958 
L 207.272618 130.885954 
L 207.492271 137.14309 
z
" clip-path="url(#p774eec4c30)" style="fill: #1f77b4; stroke: #000000; stroke-width: 1.5; stroke-linecap: round"/>
   </g>
   <g id="patch_11">
    <path d="M 159.296704 273.069972 
Q 183.598913 321.426408 207.148049 368.284383 
" clip-path="url(#p774eec4c30)" style="fill: none; stroke: #000000; stroke-width: 1.5; stroke-linecap: round"/>
    <path d="M 207.135219 362.023406 
L 207.148049 368.284383 
L 202.131569 364.538061 
z
" clip-path="url(#p774eec4c30)" style="fill: #1f77b4; stroke: #000000; stroke-width: 1.5; stroke-linecap: round"/>
   </g>
   <g id="patch_12">
    <path d="M 369.20127 371.571429 
Q 388.801093 371.571429 406.723865 371.571429 
" clip-path="url(#p774eec4c30)" style="fill: none; stroke: #000000; stroke-width: 1.5; stroke-linecap: round"/>
    <path d="M 401.123865 368.771429 
L 406.723865 371.571429 
L 401.123865 374.371429 
z
" clip-path="url(#p774eec4c30)" style="fill: #1f77b4; stroke: #000000; stroke-width: 1.5; stroke-linecap: round"/>
   </g>
   <g id="patch_13">
    <path d="M 556.399512 371.571429 
Q 572.401573 371.571429 586.726582 371.571429 
" clip-path="url(#p774eec4c30)" style="fill: none; stroke: #000000; stroke-width: 1.5; stroke-linecap: round"/>
    <path d="M 581.126582 368.771429 
L 586.726582 371.571429 
L 581.126582 374.371429 
z
" clip-path="url(#p774eec4c30)" style="fill: #1f77b4; stroke: #000000; stroke-width: 1.5; stroke-linecap: round"/>
   </g>
   <g id="patch_14">
    <path d="M 369.199182 124.2 
Q 478.798827 124.2 586.721422 124.2 
" clip-path="url(#p774eec4c30)" style="fill: none; stroke: #000000; stroke-width: 1.5; stroke-linecap: round"/>
    <path d="M 581.121422 121.4 
L 586.721422 124.2 
L 581.121422 127 
z
" clip-path="url(#p774eec4c30)" style="fill: #1f77b4; stroke: #000000; stroke-width: 1.5; stroke-linecap: round"/>
   </g>
   <g id="patch_15">
    <path d="M 735.318896 125.977627 
Q 756.000741 165.987147 775.912483 204.506887 
" clip-path="url(#p774eec4c30)" style="fill: none; stroke: #000000; stroke-width: 1.5; stroke-linecap: round"/>
    <path d="M 775.828297 198.246463 
L 775.912483 204.506887 
L 770.853632 200.817982 
z
" clip-path="url(#p774eec4c30)" style="fill: #1f77b4; stroke: #000000; stroke-width: 1.5; stroke-linecap: round"/>
   </g>
   <g id="patch_16">
    <path d="M 735.060498 369.68036 
Q 756.001155 309.725265 776.388823 251.353429 
" clip-path="url(#p774eec4c30)" style="fill: none; stroke: #000000; stroke-width: 1.5; stroke-linecap: round"/>
    <path d="M 771.898886 255.716966 
L 776.388823 251.353429 
L 777.185691 257.563501 
z
" clip-path="url(#p774eec4c30)" style="fill: #1f77b4; stroke: #000000; stroke-width: 1.5; stroke-linecap: round"/>
   </g>
   <g id="patch_17">
    <path d="M 846 276.631348 
Q 846 314.743983 846 351.179566 
" clip-path="url(#p774eec4c30)" style="fill: none; stroke: #000000; stroke-width: 1.5; stroke-linecap: round"/>
    <path d="M 848.8 345.579566 
L 846 351.179566 
L 843.2 345.579566 
z
" clip-path="url(#p774eec4c30)" style="fill: #1f77b4; stroke: #000000; stroke-width: 1.5; stroke-linecap: round"/>
   </g>
   <g id="text_1">
    <!-- New Mashup -->
    <g transform="translate(58.411172 251.447944) scale(0.11 -0.11)">
     <defs>
      <path id="DejaVuSans-4e" d="M 628 4666 
L 1478 4666 
L 3547 763 
L 3547 4666 
L 4159 4666 
L 4159 0 
L 3309 0 
L 1241 3903 
L 1241 0 
L 628 0 
L 628 4666 
z
" transform="scale(0.015625)"/>
      <path id="DejaVuSans-65" d="M 3597 1894 
L 3597 1613 
L 953 1613 
Q 991 1019 1311 708 
Q 1631 397 2203 397 
Q 2534 397 2845 478 
Q 3156 559 3463 722 
L 3463 178 
Q 3153 47 2828 -22 
Q 2503 -91 2169 -91 
Q 1331 -91 842 396 
Q 353 884 353 1716 
Q 353 2575 817 3079 
Q 1281 3584 2069 3584 
Q 2775 3584 3186 3129 
Q 3597 2675 3597 1894 
z
M 3022 2063 
Q 3016 2534 2758 2815 
Q 2500 3097 2075 3097 
Q 1594 3097 1305 2825 
Q 1016 2553 972 2059 
L 3022 2063 
z
" transform="scale(0.015625)"/>
      <path id="DejaVuSans-77" d="M 269 3500 
L 844 3500 
L 1563 769 
L 2278 3500 
L 2956 3500 
L 3675 769 
L 4391 3500 
L 4966 3500 
L 4050 0 
L 3372 0 
L 2619 2869 
L 1863 0 
L 1184 0 
L 269 3500 
z
" transform="scale(0.015625)"/>
      <path id="DejaVuSans-20" transform="scale(0.015625)"/>
      <path id="DejaVuSans-4d" d="M 628 4666 
L 1569 4666 
L 2759 1491 
L 3956 4666 
L 4897 4666 
L 4897 0 
L 4281 0 
L 4281 4097 
L 3078 897 
L 2444 897 
L 1241 4097 
L 1241 0 
L 628 0 
L 628 4666 
z
" transform="scale(0.015625)"/>
      <path id="DejaVuSans-61" d="M 2194 1759 
Q 1497 1759 1228 1600 
Q 959 1441 959 1056 
Q 959 750 1161 570 
Q 1363 391 1709 391 
Q 2188 391 2477 730 
Q 2766 1069 2766 1631 
L 2766 1759 
L 2194 1759 
z
M 3341 1997 
L 3341 0 
L 2766 0 
L 2766 531 
Q 2569 213 2275 61 
Q 1981 -91 1556 -91 
Q 1019 -91 701 211 
Q 384 513 384 1019 
Q 384 1609 779 1909 
Q 1175 2209 1959 2209 
L 2766 2209 
L 2766 2266 
Q 2766 2663 2505 2880 
Q 2244 3097 1772 3097 
Q 1472 3097 1187 3025 
Q 903 2953 641 2809 
L 641 3341 
Q 956 3463 1253 3523 
Q 1550 3584 1831 3584 
Q 2591 3584 2966 3190 
Q 3341 2797 3341 1997 
z
" transform="scale(0.015625)"/>
      <path id="DejaVuSans-73" d="M 2834 3397 
L 2834 2853 
Q 2591 2978 2328 3040 
Q 2066 3103 1784 3103 
Q 1356 3103 1142 2972 
Q 928 2841 928 2578 
Q 928 2378 1081 2264 
Q 1234 2150 1697 2047 
L 1894 2003 
Q 2506 1872 2764 1633 
Q 3022 1394 3022 966 
Q 3022 478 2636 193 
Q 2250 -91 1575 -91 
Q 1294 -91 989 -36 
Q 684 19 347 128 
L 347 722 
Q 666 556 975 473 
Q 1284 391 1588 391 
Q 1994 391 2212 530 
Q 2431 669 2431 922 
Q 2431 1156 2273 1281 
Q 2116 1406 1581 1522 
L 1381 1569 
Q 847 1681 609 1914 
Q 372 2147 372 2553 
Q 372 3047 722 3315 
Q 1072 3584 1716 3584 
Q 2034 3584 2315 3537 
Q 2597 3491 2834 3397 
z
" transform="scale(0.015625)"/>
      <path id="DejaVuSans-68" d="M 3513 2113 
L 3513 0 
L 2938 0 
L 2938 2094 
Q 2938 2591 2744 2837 
Q 2550 3084 2163 3084 
Q 1697 3084 1428 2787 
Q 1159 2491 1159 1978 
L 1159 0 
L 581 0 
L 581 4863 
L 1159 4863 
L 1159 2956 
Q 1366 3272 1645 3428 
Q 1925 3584 2291 3584 
Q 2894 3584 3203 3211 
Q 3513 2838 3513 2113 
z
" transform="scale(0.015625)"/>
      <path id="DejaVuSans-75" d="M 544 1381 
L 544 3500 
L 1119 3500 
L 1119 1403 
Q 1119 906 1312 657 
Q 1506 409 1894 409 
Q 2359 409 2629 706 
Q 2900 1003 2900 1516 
L 2900 3500 
L 3475 3500 
L 3475 0 
L 2900 0 
L 2900 538 
Q 2691 219 2414 64 
Q 2138 -91 1772 -91 
Q 1169 -91 856 284 
Q 544 659 544 1381 
z
M 1991 3584 
L 1991 3584 
z
" transform="scale(0.015625)"/>
      <path id="DejaVuSans-70" d="M 1159 525 
L 1159 -1331 
L 581 -1331 
L 581 3500 
L 1159 3500 
L 1159 2969 
Q 1341 3281 1617 3432 
Q 1894 3584 2278 3584 
Q 2916 3584 3314 3078 
Q 3713 2572 3713 1747 
Q 3713 922 3314 415 
Q 2916 -91 2278 -91 
Q 1894 -91 1617 61 
Q 1341 213 1159 525 
z
M 3116 1747 
Q 3116 2381 2855 2742 
Q 2594 3103 2138 3103 
Q 1681 3103 1420 2742 
Q 1159 2381 1159 1747 
Q 1159 1113 1420 752 
Q 1681 391 2138 391 
Q 2594 391 2855 752 
Q 3116 1113 3116 1747 
z
" transform="scale(0.015625)"/>
     </defs>
     <use xlink:href="#DejaVuSans-4e"/>
     <use xlink:href="#DejaVuSans-65" transform="translate(74.804688 0)"/>
     <use xlink:href="#DejaVuSans-77" transform="translate(136.328125 0)"/>
     <use xlink:href="#DejaVuSans-20" transform="translate(218.115234 0)"/>
     <use xlink:href="#DejaVuSans-4d" transform="translate(249.902344 0)"/>
     <use xlink:href="#DejaVuSans-61" transform="translate(336.181641 0)"/>
     <use xlink:href="#DejaVuSans-73" transform="translate(397.460938 0)"/>
     <use xlink:href="#DejaVuSans-68" transform="translate(449.560547 0)"/>
     <use xlink:href="#DejaVuSans-75" transform="translate(512.939453 0)"/>
     <use xlink:href="#DejaVuSans-70" transform="translate(576.318359 0)"/>
    </g>
    <!-- Text -->
    <g transform="translate(82.47625 263.765538) scale(0.11 -0.11)">
     <defs>
      <path id="DejaVuSans-54" d="M -19 4666 
L 3928 4666 
L 3928 4134 
L 2272 4134 
L 2272 0 
L 1638 0 
L 1638 4134 
L -19 4134 
L -19 4666 
z
" transform="scale(0.015625)"/>
      <path id="DejaVuSans-78" d="M 3513 3500 
L 2247 1797 
L 3578 0 
L 2900 0 
L 1881 1375 
L 863 0 
L 184 0 
L 1544 1831 
L 300 3500 
L 978 3500 
L 1906 2253 
L 2834 3500 
L 3513 3500 
z
" transform="scale(0.015625)"/>
      <path id="DejaVuSans-74" d="M 1172 4494 
L 1172 3500 
L 2356 3500 
L 2356 3053 
L 1172 3053 
L 1172 1153 
Q 1172 725 1289 603 
Q 1406 481 1766 481 
L 2356 481 
L 2356 0 
L 1766 0 
Q 1100 0 847 248 
Q 594 497 594 1153 
L 594 3053 
L 172 3053 
L 172 3500 
L 594 3500 
L 594 4494 
L 1172 4494 
z
" transform="scale(0.015625)"/>
     </defs>
     <use xlink:href="#DejaVuSans-54"/>
     <use xlink:href="#DejaVuSans-65" transform="translate(44.083984 0)"/>
     <use xlink:href="#DejaVuSans-78" transform="translate(103.857422 0)"/>
     <use xlink:href="#DejaVuSans-74" transform="translate(163.037109 0)"/>
    </g>
   </g>
   <g id="text_2">
    <!-- Direct BGE -->
    <g transform="translate(258.373047 121.076516) scale(0.11 -0.11)">
     <defs>
      <path id="DejaVuSans-44" d="M 1259 4147 
L 1259 519 
L 2022 519 
Q 2988 519 3436 956 
Q 3884 1394 3884 2338 
Q 3884 3275 3436 3711 
Q 2988 4147 2022 4147 
L 1259 4147 
z
M 628 4666 
L 1925 4666 
Q 3281 4666 3915 4102 
Q 4550 3538 4550 2338 
Q 4550 1131 3912 565 
Q 3275 0 1925 0 
L 628 0 
L 628 4666 
z
" transform="scale(0.015625)"/>
      <path id="DejaVuSans-69" d="M 603 3500 
L 1178 3500 
L 1178 0 
L 603 0 
L 603 3500 
z
M 603 4863 
L 1178 4863 
L 1178 4134 
L 603 4134 
L 603 4863 
z
" transform="scale(0.015625)"/>
      <path id="DejaVuSans-72" d="M 2631 2963 
Q 2534 3019 2420 3045 
Q 2306 3072 2169 3072 
Q 1681 3072 1420 2755 
Q 1159 2438 1159 1844 
L 1159 0 
L 581 0 
L 581 3500 
L 1159 3500 
L 1159 2956 
Q 1341 3275 1631 3429 
Q 1922 3584 2338 3584 
Q 2397 3584 2469 3576 
Q 2541 3569 2628 3553 
L 2631 2963 
z
" transform="scale(0.015625)"/>
      <path id="DejaVuSans-63" d="M 3122 3366 
L 3122 2828 
Q 2878 2963 2633 3030 
Q 2388 3097 2138 3097 
Q 1578 3097 1268 2742 
Q 959 2388 959 1747 
Q 959 1106 1268 751 
Q 1578 397 2138 397 
Q 2388 397 2633 464 
Q 2878 531 3122 666 
L 3122 134 
Q 2881 22 2623 -34 
Q 2366 -91 2075 -91 
Q 1284 -91 818 406 
Q 353 903 353 1747 
Q 353 2603 823 3093 
Q 1294 3584 2113 3584 
Q 2378 3584 2631 3529 
Q 2884 3475 3122 3366 
z
" transform="scale(0.015625)"/>
      <path id="DejaVuSans-42" d="M 1259 2228 
L 1259 519 
L 2272 519 
Q 2781 519 3026 730 
Q 3272 941 3272 1375 
Q 3272 1813 3026 2020 
Q 2781 2228 2272 2228 
L 1259 2228 
z
M 1259 4147 
L 1259 2741 
L 2194 2741 
Q 2656 2741 2882 2914 
Q 3109 3088 3109 3444 
Q 3109 3797 2882 3972 
Q 2656 4147 2194 4147 
L 1259 4147 
z
M 628 4666 
L 2241 4666 
Q 2963 4666 3353 4366 
Q 3744 4066 3744 3513 
Q 3744 3084 3544 2831 
Q 3344 2578 2956 2516 
Q 3422 2416 3680 2098 
Q 3938 1781 3938 1306 
Q 3938 681 3513 340 
Q 3088 0 2303 0 
L 628 0 
L 628 4666 
z
" transform="scale(0.015625)"/>
      <path id="DejaVuSans-47" d="M 3809 666 
L 3809 1919 
L 2778 1919 
L 2778 2438 
L 4434 2438 
L 4434 434 
Q 4069 175 3628 42 
Q 3188 -91 2688 -91 
Q 1594 -91 976 548 
Q 359 1188 359 2328 
Q 359 3472 976 4111 
Q 1594 4750 2688 4750 
Q 3144 4750 3555 4637 
Q 3966 4525 4313 4306 
L 4313 3634 
Q 3963 3931 3569 4081 
Q 3175 4231 2741 4231 
Q 1884 4231 1454 3753 
Q 1025 3275 1025 2328 
Q 1025 1384 1454 906 
Q 1884 428 2741 428 
Q 3075 428 3337 486 
Q 3600 544 3809 666 
z
" transform="scale(0.015625)"/>
      <path id="DejaVuSans-45" d="M 628 4666 
L 3578 4666 
L 3578 4134 
L 1259 4134 
L 1259 2753 
L 3481 2753 
L 3481 2222 
L 1259 2222 
L 1259 531 
L 3634 531 
L 3634 0 
L 628 0 
L 628 4666 
z
" transform="scale(0.015625)"/>
     </defs>
     <use xlink:href="#DejaVuSans-44"/>
     <use xlink:href="#DejaVuSans-69" transform="translate(77.001953 0)"/>
     <use xlink:href="#DejaVuSans-72" transform="translate(104.785156 0)"/>
     <use xlink:href="#DejaVuSans-65" transform="translate(143.648438 0)"/>
     <use xlink:href="#DejaVuSans-63" transform="translate(205.171875 0)"/>
     <use xlink:href="#DejaVuSans-74" transform="translate(260.152344 0)"/>
     <use xlink:href="#DejaVuSans-20" transform="translate(299.361328 0)"/>
     <use xlink:href="#DejaVuSans-42" transform="translate(331.148438 0)"/>
     <use xlink:href="#DejaVuSans-47" transform="translate(398.001953 0)"/>
     <use xlink:href="#DejaVuSans-45" transform="translate(475.492188 0)"/>
    </g>
    <!-- Mashup–API Matching -->
    <g transform="translate(228.069766 133.394109) scale(0.11 -0.11)">
     <defs>
      <path id="DejaVuSans-2013" d="M 313 1978 
L 2888 1978 
L 2888 1528 
L 313 1528 
L 313 1978 
z
" transform="scale(0.015625)"/>
      <path id="DejaVuSans-41" d="M 2188 4044 
L 1331 1722 
L 3047 1722 
L 2188 4044 
z
M 1831 4666 
L 2547 4666 
L 4325 0 
L 3669 0 
L 3244 1197 
L 1141 1197 
L 716 0 
L 50 0 
L 1831 4666 
z
" transform="scale(0.015625)"/>
      <path id="DejaVuSans-50" d="M 1259 4147 
L 1259 2394 
L 2053 2394 
Q 2494 2394 2734 2622 
Q 2975 2850 2975 3272 
Q 2975 3691 2734 3919 
Q 2494 4147 2053 4147 
L 1259 4147 
z
M 628 4666 
L 2053 4666 
Q 2838 4666 3239 4311 
Q 3641 3956 3641 3272 
Q 3641 2581 3239 2228 
Q 2838 1875 2053 1875 
L 1259 1875 
L 1259 0 
L 628 0 
L 628 4666 
z
" transform="scale(0.015625)"/>
      <path id="DejaVuSans-49" d="M 628 4666 
L 1259 4666 
L 1259 0 
L 628 0 
L 628 4666 
z
" transform="scale(0.015625)"/>
      <path id="DejaVuSans-6e" d="M 3513 2113 
L 3513 0 
L 2938 0 
L 2938 2094 
Q 2938 2591 2744 2837 
Q 2550 3084 2163 3084 
Q 1697 3084 1428 2787 
Q 1159 2491 1159 1978 
L 1159 0 
L 581 0 
L 581 3500 
L 1159 3500 
L 1159 2956 
Q 1366 3272 1645 3428 
Q 1925 3584 2291 3584 
Q 2894 3584 3203 3211 
Q 3513 2838 3513 2113 
z
" transform="scale(0.015625)"/>
      <path id="DejaVuSans-67" d="M 2906 1791 
Q 2906 2416 2648 2759 
Q 2391 3103 1925 3103 
Q 1463 3103 1205 2759 
Q 947 2416 947 1791 
Q 947 1169 1205 825 
Q 1463 481 1925 481 
Q 2391 481 2648 825 
Q 2906 1169 2906 1791 
z
M 3481 434 
Q 3481 -459 3084 -895 
Q 2688 -1331 1869 -1331 
Q 1566 -1331 1297 -1286 
Q 1028 -1241 775 -1147 
L 775 -588 
Q 1028 -725 1275 -790 
Q 1522 -856 1778 -856 
Q 2344 -856 2625 -561 
Q 2906 -266 2906 331 
L 2906 616 
Q 2728 306 2450 153 
Q 2172 0 1784 0 
Q 1141 0 747 490 
Q 353 981 353 1791 
Q 353 2603 747 3093 
Q 1141 3584 1784 3584 
Q 2172 3584 2450 3431 
Q 2728 3278 2906 2969 
L 2906 3500 
L 3481 3500 
L 3481 434 
z
" transform="scale(0.015625)"/>
     </defs>
     <use xlink:href="#DejaVuSans-4d"/>
     <use xlink:href="#DejaVuSans-61" transform="translate(86.279297 0)"/>
     <use xlink:href="#DejaVuSans-73" transform="translate(147.558594 0)"/>
     <use xlink:href="#DejaVuSans-68" transform="translate(199.658203 0)"/>
     <use xlink:href="#DejaVuSans-75" transform="translate(263.037109 0)"/>
     <use xlink:href="#DejaVuSans-70" transform="translate(326.416016 0)"/>
     <use xlink:href="#DejaVuSans-2013" transform="translate(389.892578 0)"/>
     <use xlink:href="#DejaVuSans-41" transform="translate(439.892578 0)"/>
     <use xlink:href="#DejaVuSans-50" transform="translate(508.300781 0)"/>
     <use xlink:href="#DejaVuSans-49" transform="translate(568.603516 0)"/>
     <use xlink:href="#DejaVuSans-20" transform="translate(598.095703 0)"/>
     <use xlink:href="#DejaVuSans-4d" transform="translate(629.882812 0)"/>
     <use xlink:href="#DejaVuSans-61" transform="translate(716.162109 0)"/>
     <use xlink:href="#DejaVuSans-74" transform="translate(777.441406 0)"/>
     <use xlink:href="#DejaVuSans-63" transform="translate(816.650391 0)"/>
     <use xlink:href="#DejaVuSans-68" transform="translate(871.630859 0)"/>
     <use xlink:href="#DejaVuSans-69" transform="translate(935.009766 0)"/>
     <use xlink:href="#DejaVuSans-6e" transform="translate(962.792969 0)"/>
     <use xlink:href="#DejaVuSans-67" transform="translate(1026.171875 0)"/>
    </g>
   </g>
   <g id="text_3">
    <!-- BGE Neighbor -->
    <g transform="translate(249.715703 368.447944) scale(0.11 -0.11)">
     <defs>
      <path id="DejaVuSans-62" d="M 3116 1747 
Q 3116 2381 2855 2742 
Q 2594 3103 2138 3103 
Q 1681 3103 1420 2742 
Q 1159 2381 1159 1747 
Q 1159 1113 1420 752 
Q 1681 391 2138 391 
Q 2594 391 2855 752 
Q 3116 1113 3116 1747 
z
M 1159 2969 
Q 1341 3281 1617 3432 
Q 1894 3584 2278 3584 
Q 2916 3584 3314 3078 
Q 3713 2572 3713 1747 
Q 3713 922 3314 415 
Q 2916 -91 2278 -91 
Q 1894 -91 1617 61 
Q 1341 213 1159 525 
L 1159 0 
L 581 0 
L 581 4863 
L 1159 4863 
L 1159 2969 
z
" transform="scale(0.015625)"/>
      <path id="DejaVuSans-6f" d="M 1959 3097 
Q 1497 3097 1228 2736 
Q 959 2375 959 1747 
Q 959 1119 1226 758 
Q 1494 397 1959 397 
Q 2419 397 2687 759 
Q 2956 1122 2956 1747 
Q 2956 2369 2687 2733 
Q 2419 3097 1959 3097 
z
M 1959 3584 
Q 2709 3584 3137 3096 
Q 3566 2609 3566 1747 
Q 3566 888 3137 398 
Q 2709 -91 1959 -91 
Q 1206 -91 779 398 
Q 353 888 353 1747 
Q 353 2609 779 3096 
Q 1206 3584 1959 3584 
z
" transform="scale(0.015625)"/>
     </defs>
     <use xlink:href="#DejaVuSans-42"/>
     <use xlink:href="#DejaVuSans-47" transform="translate(66.853516 0)"/>
     <use xlink:href="#DejaVuSans-45" transform="translate(144.34375 0)"/>
     <use xlink:href="#DejaVuSans-20" transform="translate(207.527344 0)"/>
     <use xlink:href="#DejaVuSans-4e" transform="translate(239.314453 0)"/>
     <use xlink:href="#DejaVuSans-65" transform="translate(314.119141 0)"/>
     <use xlink:href="#DejaVuSans-69" transform="translate(375.642578 0)"/>
     <use xlink:href="#DejaVuSans-67" transform="translate(403.425781 0)"/>
     <use xlink:href="#DejaVuSans-68" transform="translate(466.902344 0)"/>
     <use xlink:href="#DejaVuSans-62" transform="translate(530.28125 0)"/>
     <use xlink:href="#DejaVuSans-6f" transform="translate(593.757812 0)"/>
     <use xlink:href="#DejaVuSans-72" transform="translate(654.939453 0)"/>
    </g>
    <!-- Retrieval -->
    <g transform="translate(263.558516 380.765538) scale(0.11 -0.11)">
     <defs>
      <path id="DejaVuSans-52" d="M 2841 2188 
Q 3044 2119 3236 1894 
Q 3428 1669 3622 1275 
L 4263 0 
L 3584 0 
L 2988 1197 
Q 2756 1666 2539 1819 
Q 2322 1972 1947 1972 
L 1259 1972 
L 1259 0 
L 628 0 
L 628 4666 
L 2053 4666 
Q 2853 4666 3247 4331 
Q 3641 3997 3641 3322 
Q 3641 2881 3436 2590 
Q 3231 2300 2841 2188 
z
M 1259 4147 
L 1259 2491 
L 2053 2491 
Q 2509 2491 2742 2702 
Q 2975 2913 2975 3322 
Q 2975 3731 2742 3939 
Q 2509 4147 2053 4147 
L 1259 4147 
z
" transform="scale(0.015625)"/>
      <path id="DejaVuSans-76" d="M 191 3500 
L 800 3500 
L 1894 563 
L 2988 3500 
L 3597 3500 
L 2284 0 
L 1503 0 
L 191 3500 
z
" transform="scale(0.015625)"/>
      <path id="DejaVuSans-6c" d="M 603 4863 
L 1178 4863 
L 1178 0 
L 603 0 
L 603 4863 
z
" transform="scale(0.015625)"/>
     </defs>
     <use xlink:href="#DejaVuSans-52"/>
     <use xlink:href="#DejaVuSans-65" transform="translate(64.982422 0)"/>
     <use xlink:href="#DejaVuSans-74" transform="translate(126.505859 0)"/>
     <use xlink:href="#DejaVuSans-72" transform="translate(165.714844 0)"/>
     <use xlink:href="#DejaVuSans-69" transform="translate(206.828125 0)"/>
     <use xlink:href="#DejaVuSans-65" transform="translate(234.611328 0)"/>
     <use xlink:href="#DejaVuSans-76" transform="translate(296.134766 0)"/>
     <use xlink:href="#DejaVuSans-61" transform="translate(355.314453 0)"/>
     <use xlink:href="#DejaVuSans-6c" transform="translate(416.59375 0)"/>
    </g>
   </g>
   <g id="text_4">
    <!-- Similar Train -->
    <g transform="translate(448.394531 368.447944) scale(0.11 -0.11)">
     <defs>
      <path id="DejaVuSans-53" d="M 3425 4513 
L 3425 3897 
Q 3066 4069 2747 4153 
Q 2428 4238 2131 4238 
Q 1616 4238 1336 4038 
Q 1056 3838 1056 3469 
Q 1056 3159 1242 3001 
Q 1428 2844 1947 2747 
L 2328 2669 
Q 3034 2534 3370 2195 
Q 3706 1856 3706 1288 
Q 3706 609 3251 259 
Q 2797 -91 1919 -91 
Q 1588 -91 1214 -16 
Q 841 59 441 206 
L 441 856 
Q 825 641 1194 531 
Q 1563 422 1919 422 
Q 2459 422 2753 634 
Q 3047 847 3047 1241 
Q 3047 1584 2836 1778 
Q 2625 1972 2144 2069 
L 1759 2144 
Q 1053 2284 737 2584 
Q 422 2884 422 3419 
Q 422 4038 858 4394 
Q 1294 4750 2059 4750 
Q 2388 4750 2728 4690 
Q 3069 4631 3425 4513 
z
" transform="scale(0.015625)"/>
      <path id="DejaVuSans-6d" d="M 3328 2828 
Q 3544 3216 3844 3400 
Q 4144 3584 4550 3584 
Q 5097 3584 5394 3201 
Q 5691 2819 5691 2113 
L 5691 0 
L 5113 0 
L 5113 2094 
Q 5113 2597 4934 2840 
Q 4756 3084 4391 3084 
Q 3944 3084 3684 2787 
Q 3425 2491 3425 1978 
L 3425 0 
L 2847 0 
L 2847 2094 
Q 2847 2600 2669 2842 
Q 2491 3084 2119 3084 
Q 1678 3084 1418 2786 
Q 1159 2488 1159 1978 
L 1159 0 
L 581 0 
L 581 3500 
L 1159 3500 
L 1159 2956 
Q 1356 3278 1631 3431 
Q 1906 3584 2284 3584 
Q 2666 3584 2933 3390 
Q 3200 3197 3328 2828 
z
" transform="scale(0.015625)"/>
     </defs>
     <use xlink:href="#DejaVuSans-53"/>
     <use xlink:href="#DejaVuSans-69" transform="translate(63.476562 0)"/>
     <use xlink:href="#DejaVuSans-6d" transform="translate(91.259766 0)"/>
     <use xlink:href="#DejaVuSans-69" transform="translate(188.671875 0)"/>
     <use xlink:href="#DejaVuSans-6c" transform="translate(216.455078 0)"/>
     <use xlink:href="#DejaVuSans-61" transform="translate(244.238281 0)"/>
     <use xlink:href="#DejaVuSans-72" transform="translate(305.517578 0)"/>
     <use xlink:href="#DejaVuSans-20" transform="translate(346.630859 0)"/>
     <use xlink:href="#DejaVuSans-54" transform="translate(378.417969 0)"/>
     <use xlink:href="#DejaVuSans-72" transform="translate(424.751953 0)"/>
     <use xlink:href="#DejaVuSans-61" transform="translate(465.865234 0)"/>
     <use xlink:href="#DejaVuSans-69" transform="translate(527.144531 0)"/>
     <use xlink:href="#DejaVuSans-6e" transform="translate(554.927734 0)"/>
    </g>
    <!-- Mashups -->
    <g transform="translate(458.090859 380.765538) scale(0.11 -0.11)">
     <use xlink:href="#DejaVuSans-4d"/>
     <use xlink:href="#DejaVuSans-61" transform="translate(86.279297 0)"/>
     <use xlink:href="#DejaVuSans-73" transform="translate(147.558594 0)"/>
     <use xlink:href="#DejaVuSans-68" transform="translate(199.658203 0)"/>
     <use xlink:href="#DejaVuSans-75" transform="translate(263.037109 0)"/>
     <use xlink:href="#DejaVuSans-70" transform="translate(326.416016 0)"/>
     <use xlink:href="#DejaVuSans-73" transform="translate(389.892578 0)"/>
    </g>
   </g>
   <g id="text_5">
    <!-- Inductive -->
    <g transform="translate(636.966797 368.447944) scale(0.11 -0.11)">
     <defs>
      <path id="DejaVuSans-64" d="M 2906 2969 
L 2906 4863 
L 3481 4863 
L 3481 0 
L 2906 0 
L 2906 525 
Q 2725 213 2448 61 
Q 2172 -91 1784 -91 
Q 1150 -91 751 415 
Q 353 922 353 1747 
Q 353 2572 751 3078 
Q 1150 3584 1784 3584 
Q 2172 3584 2448 3432 
Q 2725 3281 2906 2969 
z
M 947 1747 
Q 947 1113 1208 752 
Q 1469 391 1925 391 
Q 2381 391 2643 752 
Q 2906 1113 2906 1747 
Q 2906 2381 2643 2742 
Q 2381 3103 1925 3103 
Q 1469 3103 1208 2742 
Q 947 2381 947 1747 
z
" transform="scale(0.015625)"/>
     </defs>
     <use xlink:href="#DejaVuSans-49"/>
     <use xlink:href="#DejaVuSans-6e" transform="translate(29.492188 0)"/>
     <use xlink:href="#DejaVuSans-64" transform="translate(92.871094 0)"/>
     <use xlink:href="#DejaVuSans-75" transform="translate(156.347656 0)"/>
     <use xlink:href="#DejaVuSans-63" transform="translate(219.726562 0)"/>
     <use xlink:href="#DejaVuSans-74" transform="translate(274.707031 0)"/>
     <use xlink:href="#DejaVuSans-69" transform="translate(313.916016 0)"/>
     <use xlink:href="#DejaVuSans-76" transform="translate(341.699219 0)"/>
     <use xlink:href="#DejaVuSans-65" transform="translate(400.878906 0)"/>
    </g>
    <!-- LightGCN -->
    <g transform="translate(636.457188 380.765538) scale(0.11 -0.11)">
     <defs>
      <path id="DejaVuSans-4c" d="M 628 4666 
L 1259 4666 
L 1259 531 
L 3531 531 
L 3531 0 
L 628 0 
L 628 4666 
z
" transform="scale(0.015625)"/>
      <path id="DejaVuSans-43" d="M 4122 4306 
L 4122 3641 
Q 3803 3938 3442 4084 
Q 3081 4231 2675 4231 
Q 1875 4231 1450 3742 
Q 1025 3253 1025 2328 
Q 1025 1406 1450 917 
Q 1875 428 2675 428 
Q 3081 428 3442 575 
Q 3803 722 4122 1019 
L 4122 359 
Q 3791 134 3420 21 
Q 3050 -91 2638 -91 
Q 1578 -91 968 557 
Q 359 1206 359 2328 
Q 359 3453 968 4101 
Q 1578 4750 2638 4750 
Q 3056 4750 3426 4639 
Q 3797 4528 4122 4306 
z
" transform="scale(0.015625)"/>
     </defs>
     <use xlink:href="#DejaVuSans-4c"/>
     <use xlink:href="#DejaVuSans-69" transform="translate(55.712891 0)"/>
     <use xlink:href="#DejaVuSans-67" transform="translate(83.496094 0)"/>
     <use xlink:href="#DejaVuSans-68" transform="translate(146.972656 0)"/>
     <use xlink:href="#DejaVuSans-74" transform="translate(210.351562 0)"/>
     <use xlink:href="#DejaVuSans-47" transform="translate(249.560547 0)"/>
     <use xlink:href="#DejaVuSans-43" transform="translate(327.050781 0)"/>
     <use xlink:href="#DejaVuSans-4e" transform="translate(396.875 0)"/>
    </g>
   </g>
   <g id="text_6">
    <!-- Direct Semantic -->
    <g transform="translate(618.389688 121.076516) scale(0.11 -0.11)">
     <use xlink:href="#DejaVuSans-44"/>
     <use xlink:href="#DejaVuSans-69" transform="translate(77.001953 0)"/>
     <use xlink:href="#DejaVuSans-72" transform="translate(104.785156 0)"/>
     <use xlink:href="#DejaVuSans-65" transform="translate(143.648438 0)"/>
     <use xlink:href="#DejaVuSans-63" transform="translate(205.171875 0)"/>
     <use xlink:href="#DejaVuSans-74" transform="translate(260.152344 0)"/>
     <use xlink:href="#DejaVuSans-20" transform="translate(299.361328 0)"/>
     <use xlink:href="#DejaVuSans-53" transform="translate(331.148438 0)"/>
     <use xlink:href="#DejaVuSans-65" transform="translate(394.625 0)"/>
     <use xlink:href="#DejaVuSans-6d" transform="translate(456.148438 0)"/>
     <use xlink:href="#DejaVuSans-61" transform="translate(553.560547 0)"/>
     <use xlink:href="#DejaVuSans-6e" transform="translate(614.839844 0)"/>
     <use xlink:href="#DejaVuSans-74" transform="translate(678.21875 0)"/>
     <use xlink:href="#DejaVuSans-69" transform="translate(717.427734 0)"/>
     <use xlink:href="#DejaVuSans-63" transform="translate(745.210938 0)"/>
    </g>
    <!-- Score -->
    <g transform="translate(646.997422 133.394109) scale(0.11 -0.11)">
     <use xlink:href="#DejaVuSans-53"/>
     <use xlink:href="#DejaVuSans-63" transform="translate(63.476562 0)"/>
     <use xlink:href="#DejaVuSans-6f" transform="translate(118.457031 0)"/>
     <use xlink:href="#DejaVuSans-72" transform="translate(179.638672 0)"/>
     <use xlink:href="#DejaVuSans-65" transform="translate(218.501953 0)"/>
    </g>
   </g>
   <g id="text_7">
    <!-- Row-wise z-score -->
    <g transform="translate(803.189062 213.791228) scale(0.1 -0.1)">
     <defs>
      <path id="DejaVuSans-2d" d="M 313 2009 
L 1997 2009 
L 1997 1497 
L 313 1497 
L 313 2009 
z
" transform="scale(0.015625)"/>
      <path id="DejaVuSans-7a" d="M 353 3500 
L 3084 3500 
L 3084 2975 
L 922 459 
L 3084 459 
L 3084 0 
L 275 0 
L 275 525 
L 2438 3041 
L 353 3041 
L 353 3500 
z
" transform="scale(0.015625)"/>
     </defs>
     <use xlink:href="#DejaVuSans-52"/>
     <use xlink:href="#DejaVuSans-6f" transform="translate(64.982422 0)"/>
     <use xlink:href="#DejaVuSans-77" transform="translate(126.164062 0)"/>
     <use xlink:href="#DejaVuSans-2d" transform="translate(207.951172 0)"/>
     <use xlink:href="#DejaVuSans-77" transform="translate(244.035156 0)"/>
     <use xlink:href="#DejaVuSans-69" transform="translate(325.822266 0)"/>
     <use xlink:href="#DejaVuSans-73" transform="translate(353.605469 0)"/>
     <use xlink:href="#DejaVuSans-65" transform="translate(405.705078 0)"/>
     <use xlink:href="#DejaVuSans-20" transform="translate(467.228516 0)"/>
     <use xlink:href="#DejaVuSans-7a" transform="translate(499.015625 0)"/>
     <use xlink:href="#DejaVuSans-2d" transform="translate(551.505859 0)"/>
     <use xlink:href="#DejaVuSans-73" transform="translate(587.589844 0)"/>
     <use xlink:href="#DejaVuSans-63" transform="translate(639.689453 0)"/>
     <use xlink:href="#DejaVuSans-6f" transform="translate(694.669922 0)"/>
     <use xlink:href="#DejaVuSans-72" transform="translate(755.851562 0)"/>
     <use xlink:href="#DejaVuSans-65" transform="translate(794.714844 0)"/>
    </g>
    <!-- Fusion -->
    <g transform="translate(830.008594 224.98904) scale(0.1 -0.1)">
     <defs>
      <path id="DejaVuSans-46" d="M 628 4666 
L 3309 4666 
L 3309 4134 
L 1259 4134 
L 1259 2759 
L 3109 2759 
L 3109 2228 
L 1259 2228 
L 1259 0 
L 628 0 
L 628 4666 
z
" transform="scale(0.015625)"/>
     </defs>
     <use xlink:href="#DejaVuSans-46"/>
     <use xlink:href="#DejaVuSans-75" transform="translate(52.019531 0)"/>
     <use xlink:href="#DejaVuSans-73" transform="translate(115.398438 0)"/>
     <use xlink:href="#DejaVuSans-69" transform="translate(167.498047 0)"/>
     <use xlink:href="#DejaVuSans-6f" transform="translate(195.28125 0)"/>
     <use xlink:href="#DejaVuSans-6e" transform="translate(256.462891 0)"/>
    </g>
    <!-- 0.35·LightGCN -->
    <g transform="translate(809.69375 236.186853) scale(0.1 -0.1)">
     <defs>
      <path id="DejaVuSans-30" d="M 2034 4250 
Q 1547 4250 1301 3770 
Q 1056 3291 1056 2328 
Q 1056 1369 1301 889 
Q 1547 409 2034 409 
Q 2525 409 2770 889 
Q 3016 1369 3016 2328 
Q 3016 3291 2770 3770 
Q 2525 4250 2034 4250 
z
M 2034 4750 
Q 2819 4750 3233 4129 
Q 3647 3509 3647 2328 
Q 3647 1150 3233 529 
Q 2819 -91 2034 -91 
Q 1250 -91 836 529 
Q 422 1150 422 2328 
Q 422 3509 836 4129 
Q 1250 4750 2034 4750 
z
" transform="scale(0.015625)"/>
      <path id="DejaVuSans-2e" d="M 684 794 
L 1344 794 
L 1344 0 
L 684 0 
L 684 794 
z
" transform="scale(0.015625)"/>
      <path id="DejaVuSans-33" d="M 2597 2516 
Q 3050 2419 3304 2112 
Q 3559 1806 3559 1356 
Q 3559 666 3084 287 
Q 2609 -91 1734 -91 
Q 1441 -91 1130 -33 
Q 819 25 488 141 
L 488 750 
Q 750 597 1062 519 
Q 1375 441 1716 441 
Q 2309 441 2620 675 
Q 2931 909 2931 1356 
Q 2931 1769 2642 2001 
Q 2353 2234 1838 2234 
L 1294 2234 
L 1294 2753 
L 1863 2753 
Q 2328 2753 2575 2939 
Q 2822 3125 2822 3475 
Q 2822 3834 2567 4026 
Q 2313 4219 1838 4219 
Q 1578 4219 1281 4162 
Q 984 4106 628 3988 
L 628 4550 
Q 988 4650 1302 4700 
Q 1616 4750 1894 4750 
Q 2613 4750 3031 4423 
Q 3450 4097 3450 3541 
Q 3450 3153 3228 2886 
Q 3006 2619 2597 2516 
z
" transform="scale(0.015625)"/>
      <path id="DejaVuSans-35" d="M 691 4666 
L 3169 4666 
L 3169 4134 
L 1269 4134 
L 1269 2991 
Q 1406 3038 1543 3061 
Q 1681 3084 1819 3084 
Q 2600 3084 3056 2656 
Q 3513 2228 3513 1497 
Q 3513 744 3044 326 
Q 2575 -91 1722 -91 
Q 1428 -91 1123 -41 
Q 819 9 494 109 
L 494 744 
Q 775 591 1075 516 
Q 1375 441 1709 441 
Q 2250 441 2565 725 
Q 2881 1009 2881 1497 
Q 2881 1984 2565 2268 
Q 2250 2553 1709 2553 
Q 1456 2553 1204 2497 
Q 953 2441 691 2322 
L 691 4666 
z
" transform="scale(0.015625)"/>
      <path id="DejaVuSans-b7" d="M 684 2619 
L 1344 2619 
L 1344 1825 
L 684 1825 
L 684 2619 
z
" transform="scale(0.015625)"/>
     </defs>
     <use xlink:href="#DejaVuSans-30"/>
     <use xlink:href="#DejaVuSans-2e" transform="translate(63.623047 0)"/>
     <use xlink:href="#DejaVuSans-33" transform="translate(95.410156 0)"/>
     <use xlink:href="#DejaVuSans-35" transform="translate(159.033203 0)"/>
     <use xlink:href="#DejaVuSans-b7" transform="translate(222.65625 0)"/>
     <use xlink:href="#DejaVuSans-4c" transform="translate(254.443359 0)"/>
     <use xlink:href="#DejaVuSans-69" transform="translate(310.15625 0)"/>
     <use xlink:href="#DejaVuSans-67" transform="translate(337.939453 0)"/>
     <use xlink:href="#DejaVuSans-68" transform="translate(401.416016 0)"/>
     <use xlink:href="#DejaVuSans-74" transform="translate(464.794922 0)"/>
     <use xlink:href="#DejaVuSans-47" transform="translate(504.003906 0)"/>
     <use xlink:href="#DejaVuSans-43" transform="translate(581.494141 0)"/>
     <use xlink:href="#DejaVuSans-4e" transform="translate(651.318359 0)"/>
    </g>
    <!-- + 0.65·BGE -->
    <g transform="translate(817.122656 247.384665) scale(0.1 -0.1)">
     <defs>
      <path id="DejaVuSans-2b" d="M 2944 4013 
L 2944 2272 
L 4684 2272 
L 4684 1741 
L 2944 1741 
L 2944 0 
L 2419 0 
L 2419 1741 
L 678 1741 
L 678 2272 
L 2419 2272 
L 2419 4013 
L 2944 4013 
z
" transform="scale(0.015625)"/>
      <path id="DejaVuSans-36" d="M 2113 2584 
Q 1688 2584 1439 2293 
Q 1191 2003 1191 1497 
Q 1191 994 1439 701 
Q 1688 409 2113 409 
Q 2538 409 2786 701 
Q 3034 994 3034 1497 
Q 3034 2003 2786 2293 
Q 2538 2584 2113 2584 
z
M 3366 4563 
L 3366 3988 
Q 3128 4100 2886 4159 
Q 2644 4219 2406 4219 
Q 1781 4219 1451 3797 
Q 1122 3375 1075 2522 
Q 1259 2794 1537 2939 
Q 1816 3084 2150 3084 
Q 2853 3084 3261 2657 
Q 3669 2231 3669 1497 
Q 3669 778 3244 343 
Q 2819 -91 2113 -91 
Q 1303 -91 875 529 
Q 447 1150 447 2328 
Q 447 3434 972 4092 
Q 1497 4750 2381 4750 
Q 2619 4750 2861 4703 
Q 3103 4656 3366 4563 
z
" transform="scale(0.015625)"/>
     </defs>
     <use xlink:href="#DejaVuSans-2b"/>
     <use xlink:href="#DejaVuSans-20" transform="translate(83.789062 0)"/>
     <use xlink:href="#DejaVuSans-30" transform="translate(115.576172 0)"/>
     <use xlink:href="#DejaVuSans-2e" transform="translate(179.199219 0)"/>
     <use xlink:href="#DejaVuSans-36" transform="translate(210.986328 0)"/>
     <use xlink:href="#DejaVuSans-35" transform="translate(274.609375 0)"/>
     <use xlink:href="#DejaVuSans-b7" transform="translate(338.232422 0)"/>
     <use xlink:href="#DejaVuSans-42" transform="translate(370.019531 0)"/>
     <use xlink:href="#DejaVuSans-47" transform="translate(436.873047 0)"/>
     <use xlink:href="#DejaVuSans-45" transform="translate(514.363281 0)"/>
    </g>
   </g>
   <g id="text_8">
    <!-- Top-K API -->
    <g transform="translate(820.678516 385.16223) scale(0.11 -0.11)">
     <defs>
      <path id="DejaVuSans-4b" d="M 628 4666 
L 1259 4666 
L 1259 2694 
L 3353 4666 
L 4166 4666 
L 1850 2491 
L 4331 0 
L 3500 0 
L 1259 2247 
L 1259 0 
L 628 0 
L 628 4666 
z
" transform="scale(0.015625)"/>
     </defs>
     <use xlink:href="#DejaVuSans-54"/>
     <use xlink:href="#DejaVuSans-6f" transform="translate(44.083984 0)"/>
     <use xlink:href="#DejaVuSans-70" transform="translate(105.265625 0)"/>
     <use xlink:href="#DejaVuSans-2d" transform="translate(168.742188 0)"/>
     <use xlink:href="#DejaVuSans-4b" transform="translate(204.826172 0)"/>
     <use xlink:href="#DejaVuSans-20" transform="translate(270.402344 0)"/>
     <use xlink:href="#DejaVuSans-41" transform="translate(302.189453 0)"/>
     <use xlink:href="#DejaVuSans-50" transform="translate(370.597656 0)"/>
     <use xlink:href="#DejaVuSans-49" transform="translate(430.900391 0)"/>
    </g>
    <!-- Ranking -->
    <g transform="translate(823.755937 397.479824) scale(0.11 -0.11)">
     <defs>
      <path id="DejaVuSans-6b" d="M 581 4863 
L 1159 4863 
L 1159 1991 
L 2875 3500 
L 3609 3500 
L 1753 1863 
L 3688 0 
L 2938 0 
L 1159 1709 
L 1159 0 
L 581 0 
L 581 4863 
z
" transform="scale(0.015625)"/>
     </defs>
     <use xlink:href="#DejaVuSans-52"/>
     <use xlink:href="#DejaVuSans-61" transform="translate(67.232422 0)"/>
     <use xlink:href="#DejaVuSans-6e" transform="translate(128.511719 0)"/>
     <use xlink:href="#DejaVuSans-6b" transform="translate(191.890625 0)"/>
     <use xlink:href="#DejaVuSans-69" transform="translate(249.800781 0)"/>
     <use xlink:href="#DejaVuSans-6e" transform="translate(277.583984 0)"/>
     <use xlink:href="#DejaVuSans-67" transform="translate(340.962891 0)"/>
    </g>
   </g>
   <g id="text_9">
    <!-- Semantic–Collaborative Fusion (SCF) -->
    <g transform="translate(299.477109 41.976652) scale(0.17 -0.17)">
     <defs>
      <path id="DejaVuSans-Bold-53" d="M 3834 4519 
L 3834 3531 
Q 3450 3703 3084 3790 
Q 2719 3878 2394 3878 
Q 1963 3878 1756 3759 
Q 1550 3641 1550 3391 
Q 1550 3203 1689 3098 
Q 1828 2994 2194 2919 
L 2706 2816 
Q 3484 2659 3812 2340 
Q 4141 2022 4141 1434 
Q 4141 663 3683 286 
Q 3225 -91 2284 -91 
Q 1841 -91 1394 -6 
Q 947 78 500 244 
L 500 1259 
Q 947 1022 1364 901 
Q 1781 781 2169 781 
Q 2563 781 2772 912 
Q 2981 1044 2981 1288 
Q 2981 1506 2839 1625 
Q 2697 1744 2272 1838 
L 1806 1941 
Q 1106 2091 782 2419 
Q 459 2747 459 3303 
Q 459 4000 909 4375 
Q 1359 4750 2203 4750 
Q 2588 4750 2994 4692 
Q 3400 4634 3834 4519 
z
" transform="scale(0.015625)"/>
      <path id="DejaVuSans-Bold-65" d="M 4031 1759 
L 4031 1441 
L 1416 1441 
Q 1456 1047 1700 850 
Q 1944 653 2381 653 
Q 2734 653 3104 758 
Q 3475 863 3866 1075 
L 3866 213 
Q 3469 63 3072 -14 
Q 2675 -91 2278 -91 
Q 1328 -91 801 392 
Q 275 875 275 1747 
Q 275 2603 792 3093 
Q 1309 3584 2216 3584 
Q 3041 3584 3536 3087 
Q 4031 2591 4031 1759 
z
M 2881 2131 
Q 2881 2450 2695 2645 
Q 2509 2841 2209 2841 
Q 1884 2841 1681 2658 
Q 1478 2475 1428 2131 
L 2881 2131 
z
" transform="scale(0.015625)"/>
      <path id="DejaVuSans-Bold-6d" d="M 3781 2919 
Q 3994 3244 4286 3414 
Q 4578 3584 4928 3584 
Q 5531 3584 5847 3212 
Q 6163 2841 6163 2131 
L 6163 0 
L 5038 0 
L 5038 1825 
Q 5041 1866 5042 1909 
Q 5044 1953 5044 2034 
Q 5044 2406 4934 2573 
Q 4825 2741 4581 2741 
Q 4263 2741 4089 2478 
Q 3916 2216 3909 1719 
L 3909 0 
L 2784 0 
L 2784 1825 
Q 2784 2406 2684 2573 
Q 2584 2741 2328 2741 
Q 2006 2741 1831 2477 
Q 1656 2213 1656 1722 
L 1656 0 
L 531 0 
L 531 3500 
L 1656 3500 
L 1656 2988 
Q 1863 3284 2130 3434 
Q 2397 3584 2719 3584 
Q 3081 3584 3359 3409 
Q 3638 3234 3781 2919 
z
" transform="scale(0.015625)"/>
      <path id="DejaVuSans-Bold-61" d="M 2106 1575 
Q 1756 1575 1579 1456 
Q 1403 1338 1403 1106 
Q 1403 894 1545 773 
Q 1688 653 1941 653 
Q 2256 653 2472 879 
Q 2688 1106 2688 1447 
L 2688 1575 
L 2106 1575 
z
M 3816 1997 
L 3816 0 
L 2688 0 
L 2688 519 
Q 2463 200 2181 54 
Q 1900 -91 1497 -91 
Q 953 -91 614 226 
Q 275 544 275 1050 
Q 275 1666 698 1953 
Q 1122 2241 2028 2241 
L 2688 2241 
L 2688 2328 
Q 2688 2594 2478 2717 
Q 2269 2841 1825 2841 
Q 1466 2841 1156 2769 
Q 847 2697 581 2553 
L 581 3406 
Q 941 3494 1303 3539 
Q 1666 3584 2028 3584 
Q 2975 3584 3395 3211 
Q 3816 2838 3816 1997 
z
" transform="scale(0.015625)"/>
      <path id="DejaVuSans-Bold-6e" d="M 4056 2131 
L 4056 0 
L 2931 0 
L 2931 347 
L 2931 1631 
Q 2931 2084 2911 2256 
Q 2891 2428 2841 2509 
Q 2775 2619 2662 2680 
Q 2550 2741 2406 2741 
Q 2056 2741 1856 2470 
Q 1656 2200 1656 1722 
L 1656 0 
L 538 0 
L 538 3500 
L 1656 3500 
L 1656 2988 
Q 1909 3294 2193 3439 
Q 2478 3584 2822 3584 
Q 3428 3584 3742 3212 
Q 4056 2841 4056 2131 
z
" transform="scale(0.015625)"/>
      <path id="DejaVuSans-Bold-74" d="M 1759 4494 
L 1759 3500 
L 2913 3500 
L 2913 2700 
L 1759 2700 
L 1759 1216 
Q 1759 972 1856 886 
Q 1953 800 2241 800 
L 2816 800 
L 2816 0 
L 1856 0 
Q 1194 0 917 276 
Q 641 553 641 1216 
L 641 2700 
L 84 2700 
L 84 3500 
L 641 3500 
L 641 4494 
L 1759 4494 
z
" transform="scale(0.015625)"/>
      <path id="DejaVuSans-Bold-69" d="M 538 3500 
L 1656 3500 
L 1656 0 
L 538 0 
L 538 3500 
z
M 538 4863 
L 1656 4863 
L 1656 3950 
L 538 3950 
L 538 4863 
z
" transform="scale(0.015625)"/>
      <path id="DejaVuSans-Bold-63" d="M 3366 3391 
L 3366 2478 
Q 3138 2634 2908 2709 
Q 2678 2784 2431 2784 
Q 1963 2784 1702 2511 
Q 1441 2238 1441 1747 
Q 1441 1256 1702 982 
Q 1963 709 2431 709 
Q 2694 709 2930 787 
Q 3166 866 3366 1019 
L 3366 103 
Q 3103 6 2833 -42 
Q 2563 -91 2291 -91 
Q 1344 -91 809 395 
Q 275 881 275 1747 
Q 275 2613 809 3098 
Q 1344 3584 2291 3584 
Q 2566 3584 2833 3536 
Q 3100 3488 3366 3391 
z
" transform="scale(0.015625)"/>
      <path id="DejaVuSans-Bold-2013" d="M 344 2156 
L 2856 2156 
L 2856 1350 
L 344 1350 
L 344 2156 
z
" transform="scale(0.015625)"/>
      <path id="DejaVuSans-Bold-43" d="M 4288 256 
Q 3956 84 3597 -3 
Q 3238 -91 2847 -91 
Q 1681 -91 1000 561 
Q 319 1213 319 2328 
Q 319 3447 1000 4098 
Q 1681 4750 2847 4750 
Q 3238 4750 3597 4662 
Q 3956 4575 4288 4403 
L 4288 3438 
Q 3953 3666 3628 3772 
Q 3303 3878 2944 3878 
Q 2300 3878 1931 3465 
Q 1563 3053 1563 2328 
Q 1563 1606 1931 1193 
Q 2300 781 2944 781 
Q 3303 781 3628 887 
Q 3953 994 4288 1222 
L 4288 256 
z
" transform="scale(0.015625)"/>
      <path id="DejaVuSans-Bold-6f" d="M 2203 2784 
Q 1831 2784 1636 2517 
Q 1441 2250 1441 1747 
Q 1441 1244 1636 976 
Q 1831 709 2203 709 
Q 2569 709 2762 976 
Q 2956 1244 2956 1747 
Q 2956 2250 2762 2517 
Q 2569 2784 2203 2784 
z
M 2203 3584 
Q 3106 3584 3614 3096 
Q 4122 2609 4122 1747 
Q 4122 884 3614 396 
Q 3106 -91 2203 -91 
Q 1297 -91 786 396 
Q 275 884 275 1747 
Q 275 2609 786 3096 
Q 1297 3584 2203 3584 
z
" transform="scale(0.015625)"/>
      <path id="DejaVuSans-Bold-6c" d="M 538 4863 
L 1656 4863 
L 1656 0 
L 538 0 
L 538 4863 
z
" transform="scale(0.015625)"/>
      <path id="DejaVuSans-Bold-62" d="M 2400 722 
Q 2759 722 2948 984 
Q 3138 1247 3138 1747 
Q 3138 2247 2948 2509 
Q 2759 2772 2400 2772 
Q 2041 2772 1848 2508 
Q 1656 2244 1656 1747 
Q 1656 1250 1848 986 
Q 2041 722 2400 722 
z
M 1656 2988 
Q 1888 3294 2169 3439 
Q 2450 3584 2816 3584 
Q 3463 3584 3878 3070 
Q 4294 2556 4294 1747 
Q 4294 938 3878 423 
Q 3463 -91 2816 -91 
Q 2450 -91 2169 54 
Q 1888 200 1656 506 
L 1656 0 
L 538 0 
L 538 4863 
L 1656 4863 
L 1656 2988 
z
" transform="scale(0.015625)"/>
      <path id="DejaVuSans-Bold-72" d="M 3138 2547 
Q 2991 2616 2845 2648 
Q 2700 2681 2553 2681 
Q 2122 2681 1889 2404 
Q 1656 2128 1656 1613 
L 1656 0 
L 538 0 
L 538 3500 
L 1656 3500 
L 1656 2925 
Q 1872 3269 2151 3426 
Q 2431 3584 2822 3584 
Q 2878 3584 2943 3579 
Q 3009 3575 3134 3559 
L 3138 2547 
z
" transform="scale(0.015625)"/>
      <path id="DejaVuSans-Bold-76" d="M 97 3500 
L 1216 3500 
L 2088 1081 
L 2956 3500 
L 4078 3500 
L 2700 0 
L 1472 0 
L 97 3500 
z
" transform="scale(0.015625)"/>
      <path id="DejaVuSans-Bold-20" transform="scale(0.015625)"/>
      <path id="DejaVuSans-Bold-46" d="M 588 4666 
L 3834 4666 
L 3834 3756 
L 1791 3756 
L 1791 2888 
L 3713 2888 
L 3713 1978 
L 1791 1978 
L 1791 0 
L 588 0 
L 588 4666 
z
" transform="scale(0.015625)"/>
      <path id="DejaVuSans-Bold-75" d="M 500 1363 
L 500 3500 
L 1625 3500 
L 1625 3150 
Q 1625 2866 1622 2436 
Q 1619 2006 1619 1863 
Q 1619 1441 1641 1255 
Q 1663 1069 1716 984 
Q 1784 875 1895 815 
Q 2006 756 2150 756 
Q 2500 756 2700 1025 
Q 2900 1294 2900 1772 
L 2900 3500 
L 4019 3500 
L 4019 0 
L 2900 0 
L 2900 506 
Q 2647 200 2364 54 
Q 2081 -91 1741 -91 
Q 1134 -91 817 281 
Q 500 653 500 1363 
z
" transform="scale(0.015625)"/>
      <path id="DejaVuSans-Bold-73" d="M 3272 3391 
L 3272 2541 
Q 2913 2691 2578 2766 
Q 2244 2841 1947 2841 
Q 1628 2841 1473 2761 
Q 1319 2681 1319 2516 
Q 1319 2381 1436 2309 
Q 1553 2238 1856 2203 
L 2053 2175 
Q 2913 2066 3209 1816 
Q 3506 1566 3506 1031 
Q 3506 472 3093 190 
Q 2681 -91 1863 -91 
Q 1516 -91 1145 -36 
Q 775 19 384 128 
L 384 978 
Q 719 816 1070 734 
Q 1422 653 1784 653 
Q 2113 653 2278 743 
Q 2444 834 2444 1013 
Q 2444 1163 2330 1236 
Q 2216 1309 1875 1350 
L 1678 1375 
Q 931 1469 631 1722 
Q 331 1975 331 2491 
Q 331 3047 712 3315 
Q 1094 3584 1881 3584 
Q 2191 3584 2531 3537 
Q 2872 3491 3272 3391 
z
" transform="scale(0.015625)"/>
      <path id="DejaVuSans-Bold-28" d="M 2413 -844 
L 1484 -844 
Q 1006 -72 778 623 
Q 550 1319 550 2003 
Q 550 2688 779 3389 
Q 1009 4091 1484 4856 
L 2413 4856 
Q 2013 4116 1813 3408 
Q 1613 2700 1613 2009 
Q 1613 1319 1811 609 
Q 2009 -100 2413 -844 
z
" transform="scale(0.015625)"/>
      <path id="DejaVuSans-Bold-29" d="M 513 -844 
Q 913 -100 1113 609 
Q 1313 1319 1313 2009 
Q 1313 2700 1113 3408 
Q 913 4116 513 4856 
L 1441 4856 
Q 1916 4091 2145 3389 
Q 2375 2688 2375 2003 
Q 2375 1319 2147 623 
Q 1919 -72 1441 -844 
L 513 -844 
z
" transform="scale(0.015625)"/>
     </defs>
     <use xlink:href="#DejaVuSans-Bold-53"/>
     <use xlink:href="#DejaVuSans-Bold-65" transform="translate(72.021484 0)"/>
     <use xlink:href="#DejaVuSans-Bold-6d" transform="translate(139.84375 0)"/>
     <use xlink:href="#DejaVuSans-Bold-61" transform="translate(244.042969 0)"/>
     <use xlink:href="#DejaVuSans-Bold-6e" transform="translate(311.523438 0)"/>
     <use xlink:href="#DejaVuSans-Bold-74" transform="translate(382.714844 0)"/>
     <use xlink:href="#DejaVuSans-Bold-69" transform="translate(430.517578 0)"/>
     <use xlink:href="#DejaVuSans-Bold-63" transform="translate(464.794922 0)"/>
     <use xlink:href="#DejaVuSans-Bold-2013" transform="translate(524.072266 0)"/>
     <use xlink:href="#DejaVuSans-Bold-43" transform="translate(574.072266 0)"/>
     <use xlink:href="#DejaVuSans-Bold-6f" transform="translate(647.460938 0)"/>
     <use xlink:href="#DejaVuSans-Bold-6c" transform="translate(716.162109 0)"/>
     <use xlink:href="#DejaVuSans-Bold-6c" transform="translate(750.439453 0)"/>
     <use xlink:href="#DejaVuSans-Bold-61" transform="translate(784.716797 0)"/>
     <use xlink:href="#DejaVuSans-Bold-62" transform="translate(852.197266 0)"/>
     <use xlink:href="#DejaVuSans-Bold-6f" transform="translate(923.779297 0)"/>
     <use xlink:href="#DejaVuSans-Bold-72" transform="translate(992.480469 0)"/>
     <use xlink:href="#DejaVuSans-Bold-61" transform="translate(1041.796875 0)"/>
     <use xlink:href="#DejaVuSans-Bold-74" transform="translate(1109.277344 0)"/>
     <use xlink:href="#DejaVuSans-Bold-69" transform="translate(1157.080078 0)"/>
     <use xlink:href="#DejaVuSans-Bold-76" transform="translate(1191.357422 0)"/>
     <use xlink:href="#DejaVuSans-Bold-65" transform="translate(1256.542969 0)"/>
     <use xlink:href="#DejaVuSans-Bold-20" transform="translate(1324.365234 0)"/>
     <use xlink:href="#DejaVuSans-Bold-46" transform="translate(1359.179688 0)"/>
     <use xlink:href="#DejaVuSans-Bold-75" transform="translate(1422.490234 0)"/>
     <use xlink:href="#DejaVuSans-Bold-73" transform="translate(1493.681641 0)"/>
     <use xlink:href="#DejaVuSans-Bold-69" transform="translate(1553.203125 0)"/>
     <use xlink:href="#DejaVuSans-Bold-6f" transform="translate(1587.480469 0)"/>
     <use xlink:href="#DejaVuSans-Bold-6e" transform="translate(1656.181641 0)"/>
     <use xlink:href="#DejaVuSans-Bold-20" transform="translate(1727.373047 0)"/>
     <use xlink:href="#DejaVuSans-Bold-28" transform="translate(1762.1875 0)"/>
     <use xlink:href="#DejaVuSans-Bold-53" transform="translate(1807.890625 0)"/>
     <use xlink:href="#DejaVuSans-Bold-43" transform="translate(1879.912109 0)"/>
     <use xlink:href="#DejaVuSans-Bold-46" transform="translate(1953.300781 0)"/>
     <use xlink:href="#DejaVuSans-Bold-29" transform="translate(2021.611328 0)"/>
    </g>
   </g>
   <g id="text_10">
    <!-- Fusion weights selected on validation only; test set is never used for tuning. -->
    <g transform="translate(284.372656 461.245089) scale(0.1 -0.1)">
     <defs>
      <path id="DejaVuSans-79" d="M 2059 -325 
Q 1816 -950 1584 -1140 
Q 1353 -1331 966 -1331 
L 506 -1331 
L 506 -850 
L 844 -850 
Q 1081 -850 1212 -737 
Q 1344 -625 1503 -206 
L 1606 56 
L 191 3500 
L 800 3500 
L 1894 763 
L 2988 3500 
L 3597 3500 
L 2059 -325 
z
" transform="scale(0.015625)"/>
      <path id="DejaVuSans-3b" d="M 750 3309 
L 1409 3309 
L 1409 2516 
L 750 2516 
L 750 3309 
z
M 750 794 
L 1409 794 
L 1409 256 
L 897 -744 
L 494 -744 
L 750 256 
L 750 794 
z
" transform="scale(0.015625)"/>
      <path id="DejaVuSans-66" d="M 2375 4863 
L 2375 4384 
L 1825 4384 
Q 1516 4384 1395 4259 
Q 1275 4134 1275 3809 
L 1275 3500 
L 2222 3500 
L 2222 3053 
L 1275 3053 
L 1275 0 
L 697 0 
L 697 3053 
L 147 3053 
L 147 3500 
L 697 3500 
L 697 3744 
Q 697 4328 969 4595 
Q 1241 4863 1831 4863 
L 2375 4863 
z
" transform="scale(0.015625)"/>
     </defs>
     <use xlink:href="#DejaVuSans-46"/>
     <use xlink:href="#DejaVuSans-75" transform="translate(52.019531 0)"/>
     <use xlink:href="#DejaVuSans-73" transform="translate(115.398438 0)"/>
     <use xlink:href="#DejaVuSans-69" transform="translate(167.498047 0)"/>
     <use xlink:href="#DejaVuSans-6f" transform="translate(195.28125 0)"/>
     <use xlink:href="#DejaVuSans-6e" transform="translate(256.462891 0)"/>
     <use xlink:href="#DejaVuSans-20" transform="translate(319.841797 0)"/>
     <use xlink:href="#DejaVuSans-77" transform="translate(351.628906 0)"/>
     <use xlink:href="#DejaVuSans-65" transform="translate(433.416016 0)"/>
     <use xlink:href="#DejaVuSans-69" transform="translate(494.939453 0)"/>
     <use xlink:href="#DejaVuSans-67" transform="translate(522.722656 0)"/>
     <use xlink:href="#DejaVuSans-68" transform="translate(586.199219 0)"/>
     <use xlink:href="#DejaVuSans-74" transform="translate(649.578125 0)"/>
     <use xlink:href="#DejaVuSans-73" transform="translate(688.787109 0)"/>
     <use xlink:href="#DejaVuSans-20" transform="translate(740.886719 0)"/>
     <use xlink:href="#DejaVuSans-73" transform="translate(772.673828 0)"/>
     <use xlink:href="#DejaVuSans-65" transform="translate(824.773438 0)"/>
     <use xlink:href="#DejaVuSans-6c" transform="translate(886.296875 0)"/>
     <use xlink:href="#DejaVuSans-65" transform="translate(914.080078 0)"/>
     <use xlink:href="#DejaVuSans-63" transform="translate(975.603516 0)"/>
     <use xlink:href="#DejaVuSans-74" transform="translate(1030.583984 0)"/>
     <use xlink:href="#DejaVuSans-65" transform="translate(1069.792969 0)"/>
     <use xlink:href="#DejaVuSans-64" transform="translate(1131.316406 0)"/>
     <use xlink:href="#DejaVuSans-20" transform="translate(1194.792969 0)"/>
     <use xlink:href="#DejaVuSans-6f" transform="translate(1226.580078 0)"/>
     <use xlink:href="#DejaVuSans-6e" transform="translate(1287.761719 0)"/>
     <use xlink:href="#DejaVuSans-20" transform="translate(1351.140625 0)"/>
     <use xlink:href="#DejaVuSans-76" transform="translate(1382.927734 0)"/>
     <use xlink:href="#DejaVuSans-61" transform="translate(1442.107422 0)"/>
     <use xlink:href="#DejaVuSans-6c" transform="translate(1503.386719 0)"/>
     <use xlink:href="#DejaVuSans-69" transform="translate(1531.169922 0)"/>
     <use xlink:href="#DejaVuSans-64" transform="translate(1558.953125 0)"/>
     <use xlink:href="#DejaVuSans-61" transform="translate(1622.429688 0)"/>
     <use xlink:href="#DejaVuSans-74" transform="translate(1683.708984 0)"/>
     <use xlink:href="#DejaVuSans-69" transform="translate(1722.917969 0)"/>
     <use xlink:href="#DejaVuSans-6f" transform="translate(1750.701172 0)"/>
     <use xlink:href="#DejaVuSans-6e" transform="translate(1811.882812 0)"/>
     <use xlink:href="#DejaVuSans-20" transform="translate(1875.261719 0)"/>
     <use xlink:href="#DejaVuSans-6f" transform="translate(1907.048828 0)"/>
     <use xlink:href="#DejaVuSans-6e" transform="translate(1968.230469 0)"/>
     <use xlink:href="#DejaVuSans-6c" transform="translate(2031.609375 0)"/>
     <use xlink:href="#DejaVuSans-79" transform="translate(2059.392578 0)"/>
     <use xlink:href="#DejaVuSans-3b" transform="translate(2118.572266 0)"/>
     <use xlink:href="#DejaVuSans-20" transform="translate(2152.263672 0)"/>
     <use xlink:href="#DejaVuSans-74" transform="translate(2184.050781 0)"/>
     <use xlink:href="#DejaVuSans-65" transform="translate(2223.259766 0)"/>
     <use xlink:href="#DejaVuSans-73" transform="translate(2284.783203 0)"/>
     <use xlink:href="#DejaVuSans-74" transform="translate(2336.882812 0)"/>
     <use xlink:href="#DejaVuSans-20" transform="translate(2376.091797 0)"/>
     <use xlink:href="#DejaVuSans-73" transform="translate(2407.878906 0)"/>
     <use xlink:href="#DejaVuSans-65" transform="translate(2459.978516 0)"/>
     <use xlink:href="#DejaVuSans-74" transform="translate(2521.501953 0)"/>
     <use xlink:href="#DejaVuSans-20" transform="translate(2560.710938 0)"/>
     <use xlink:href="#DejaVuSans-69" transform="translate(2592.498047 0)"/>
     <use xlink:href="#DejaVuSans-73" transform="translate(2620.28125 0)"/>
     <use xlink:href="#DejaVuSans-20" transform="translate(2672.380859 0)"/>
     <use xlink:href="#DejaVuSans-6e" transform="translate(2704.167969 0)"/>
     <use xlink:href="#DejaVuSans-65" transform="translate(2767.546875 0)"/>
     <use xlink:href="#DejaVuSans-76" transform="translate(2829.070312 0)"/>
     <use xlink:href="#DejaVuSans-65" transform="translate(2888.25 0)"/>
     <use xlink:href="#DejaVuSans-72" transform="translate(2949.773438 0)"/>
     <use xlink:href="#DejaVuSans-20" transform="translate(2990.886719 0)"/>
     <use xlink:href="#DejaVuSans-75" transform="translate(3022.673828 0)"/>
     <use xlink:href="#DejaVuSans-73" transform="translate(3086.052734 0)"/>
     <use xlink:href="#DejaVuSans-65" transform="translate(3138.152344 0)"/>
     <use xlink:href="#DejaVuSans-64" transform="translate(3199.675781 0)"/>
     <use xlink:href="#DejaVuSans-20" transform="translate(3263.152344 0)"/>
     <use xlink:href="#DejaVuSans-66" transform="translate(3294.939453 0)"/>
     <use xlink:href="#DejaVuSans-6f" transform="translate(3330.144531 0)"/>
     <use xlink:href="#DejaVuSans-72" transform="translate(3391.326172 0)"/>
     <use xlink:href="#DejaVuSans-20" transform="translate(3432.439453 0)"/>
     <use xlink:href="#DejaVuSans-74" transform="translate(3464.226562 0)"/>
     <use xlink:href="#DejaVuSans-75" transform="translate(3503.435547 0)"/>
     <use xlink:href="#DejaVuSans-6e" transform="translate(3566.814453 0)"/>
     <use xlink:href="#DejaVuSans-69" transform="translate(3630.193359 0)"/>
     <use xlink:href="#DejaVuSans-6e" transform="translate(3657.976562 0)"/>
     <use xlink:href="#DejaVuSans-67" transform="translate(3721.355469 0)"/>
     <use xlink:href="#DejaVuSans-2e" transform="translate(3784.832031 0)"/>
    </g>
   </g>
  </g>
 </g>
 <defs>
  <clipPath id="p774eec4c30">
   <rect x="7.2" y="7.2" width="936" height="468"/>
  </clipPath>
 </defs>
</svg>
